<svg viewBox="0 0 218.74 227.02" xmlns:xlink="http://www.w3.org/1999/xlink" xmlns="http://www.w3.org/2000/svg" data-name="Capa 1" id="Capa_1">
  <defs>
    <style>
      .cls-1 {
        fill: url(#Degradado_sin_nombre_18);
        stroke: url(#Degradado_sin_nombre_2);
        stroke-width: .9px;
      }

      .cls-1, .cls-2 {
        stroke-miterlimit: 10;
      }

      .cls-3 {
        fill: #009bd5;
        stroke-width: 0px;
      }

      .cls-4 {
        stroke: #009dd5;
        stroke-linecap: round;
        stroke-linejoin: round;
      }

      .cls-4, .cls-2 {
        fill: none;
        stroke-width: 2.7px;
      }

      .cls-2 {
        stroke: #009bd5;
      }
    </style>
    <radialGradient gradientUnits="userSpaceOnUse" gradientTransform="translate(632.09 26.15) scale(.36 .38)" r="289.43" fy="231.1" fx="-1435.84" cy="231.1" cx="-1435.84" data-name="Degradado sin nombre 18" id="Degradado_sin_nombre_18">
      <stop stop-color="#fff" offset="0"></stop>
      <stop stop-color="#fdfdfd" offset=".55"></stop>
      <stop stop-color="#f6f6f6" offset=".74"></stop>
      <stop stop-color="#eaeaea" offset=".88"></stop>
      <stop stop-color="#d9d9d9" offset="1"></stop>
      <stop stop-color="#d9d9d9" offset="1"></stop>
    </radialGradient>
    <radialGradient gradientUnits="userSpaceOnUse" gradientTransform="translate(632.09 26.15) scale(.36 .38)" r="289.88" fy="231.1" fx="-1435.84" cy="231.1" cx="-1435.84" data-name="Degradado sin nombre 2" id="Degradado_sin_nombre_2">
      <stop stop-color="#fff" offset="0"></stop>
      <stop stop-color="#1d1d1b" offset="1"></stop>
    </radialGradient>
  </defs>
  <g>
    <ellipse ry="109.41" rx="105.37" cy="113.51" cx="109.37" class="cls-1"></ellipse>
    <ellipse ry="109.41" rx="105.37" cy="113.51" cx="109.37" class="cls-2"></ellipse>
    <path d="M213.54,103.4c.66,5.54.88,10.6.85,15.01h0c0,2.15-.08,4.14-.17,5.96-1.01,10.71-3.52,20.95-7.29,30.52,2.67-10.13,5.54-25.81,3.94-44.62h0c-2.87-3.7-7.09-6.21-11.63-7.93,5.45,19.82,6.2,37.68,5.6,51,.96,1.01,1.48,2.06,1.7,2.53-1.11,2.74-2.32,5.43-3.64,8.05.2-1.65.19-3.9-1.15-5.32-1.65-1.75-4.56-1.38-5.88-1.18-.74.11-1.63.27-2.68.47.84,1.88,1.69,3.8,2.54,5.75,1.35,3.11,2.45,5.71,3.2,7.52-.28.46-.55.91-.84,1.37-2.16,3.5-4.51,6.85-7.03,10.06h0c-1.4,1.35-3.5,3.29-6.18,5.46-28.69,23.22-62.76,23.3-77.45,23.33-10.06.02-19.44-.97-28.02-2.58,19.48,9.36,38.21,9.25,43.8,9.15,13.63-.24,24.69-3.29,32-5.92-8.96,4.5-18.62,7.73-28.78,9.44-7.31.97-13.32.81-17.42.49-20.71-1.63-36.3-10.81-44.62-16.77,0,0,0,0,0,0-9.65-2.82-17.88-6.23-24.44-9.37h0c-7.76-7.07-14.52-15.3-20.01-24.42-6.61-10.98-11.39-23.27-13.91-36.4-.33-1.75-.63-3.51-.88-5.28-.48-3.32-.81-6.68-.98-10.09h0c-.11-2.03-.17-4.07-.17-6.13,0-9.85,1.25-19.4,3.61-28.47-2.54,15.44-1.87,28.23-.82,36.87.27,2.23.6,4.39.97,6.51,1.28,2.56,2.87,5.31,4.84,8.08,3.92,5.51,8.44,9.86,13.03,13.28-.64-1.68-1.2-3.22-1.7-4.59-5.99-16.41-9.27-32.13-10.93-46.2h0c-2.77-2.81-4.85-6.13-5.38-10-.24-1.69-.12-3.11,0-3.97,1.07-4.12,2.36-8.15,3.87-12.07-.76,2.68-1.75,7.6-.37,13.32.5,2.07,1.21,3.82,1.92,5.24-.12-1.11-.21-2.24-.29-3.39-.52-8.52.46-16.24,2.04-22.89t0,0c.89-1.87,1.82-3.7,2.81-5.51.7-1.29,1.42-2.56,2.17-3.81,1.15,3.6,2.87,5.82,4.53,7.25,2.15,1.85,4.76,2.87,7.85,3.19-2.21-7.53-3.93-14.1-5.25-19.43-.1-.39-.19-.77-.28-1.15.53-.7,1.07-1.38,1.61-2.07.56-.71,1.14-1.41,1.72-2.1.17.69.35,1.38.52,2.07,2.08-.09,3.72-.34,4.78-.54,21.59-4.02,27.37-26.22,52.98-36.15,1.88-.73,3.42-1.22,4.24-1.48,0,0,0,0,.02,0,5.49-.92,11.13-1.39,16.87-1.39,4.03,0,8.01.24,11.92.69-8.21-.59-14.5.5-18.48,1.47-1.45.35-2.86.76-4.23,1.21,11.32,1.06,31.91,4.68,52.37,19.11,6.24-.6,12.99-.34,19.65,1.62-17.94-15.26-36.47-20.82-46.51-23.04,13.64,1.98,26.43,6.67,37.88,13.52.01.01.03.02.05.03,4.83,3.06,10.38,7.13,16.05,12.48,2.92,2.76,5.61,5.61,8.06,8.5,0,0,0,.01,0,.01,22.21,26.13,26.53,56.39,27.41,63.68h0ZM195.51,90.57c4.82,1.46,9.89,3.65,13.64,6.99-1.69-8.96-7.3-36.63-29.26-60.42-6.44-2.1-12.88-2.61-18.75-2.35,21.18,19.32,29.75,43.02,34.36,55.78ZM202.1,151.38c-1.11-21.18-5.6-38.47-10.1-51.15-5.26-1.16-10.25-1.55-13.44-1.78-5.47-.39-11.1-.38-16.85-.06h0c5.03,8.1,16.2,26.63,28.17,52.26,2.94-.53,8.19-1.2,12.22.73ZM196.66,173.41c-.84-1.63-2.09-4.03-3.62-6.91-1.15-2.16-2.52-4.76-4.13-7.73-8.03,1.69-20.64,4.52-35.44,7.17,5.62,6.17,13.75,12.84,24.11,13.55,4.87.33,8.93-.74,11.51-1.64,1.12-.64,2.21-1.28,3.28-1.9,1.66-.96,3.11-1.83,4.28-2.54ZM182.95,87.91c1.14.17,2.68.4,4.47.73-5.97-13.59-15.41-35.11-35.74-52.74-4.67.85-8.56,2-11.2,2.8-6.03,1.83-11.92,3.71-17.63,5.6,10.64,9.79,19.42,22.91,32.29,43.5,10.01-1.03,19.25-1.16,27.82.11ZM149.52,197.49c12.22-4.64,23.26-10.39,32.84-15.78-1.57.39-4.19.91-7.43.9-12.43-.04-22.6-7.92-29.73-15.23-16.91,2.78-35.89,5.07-53.85,5.16,15.94,19.06,27.47,22.98,33.61,24.47,9.94,2.41,18.72,1.57,24.57.49ZM185.01,151.6c-7.47-13.54-18.2-32.12-31.79-52.54-12.57,1.25-25.54,3.67-38.33,6.19,9.04,16.53,18.56,34.73,32.99,53.84,12.75-2.44,25.28-5.14,37.14-7.49ZM128.1,32.15c3.29-1.18,7.97-2.8,13.45-4.04-19.24-13.07-38.19-16.92-49.06-18.25-6.15,2.81-11.5,6.51-16.48,10.47,9.53,2.29,23.65,6.91,38.14,17,4.48-1.72,9.13-3.45,13.95-5.17ZM138.42,201.26c-1.88.29-4.81.62-8.37.48-19.09-.74-35.29-14.14-47.77-29.36-8.37-.34-16.39-1.24-23.71-2.9-9.56-2.16-17.24-5.46-23.09-8.68,7.19,16.01,18.23,33.09,37.36,44.48h0s0,0,0,0c20.81,4.47,39.58,1.41,48.24,0,5.97-.97,11.75-2.36,17.33-4.03ZM109.56,95.68c13.31-2.7,25.56-5.18,36.87-6.8-13.21-19.74-22.12-32.32-32.23-41.7-11.67,3.95-22.57,7.82-32.58,11.17,11.66,10.7,19.95,23.31,27.93,37.33ZM139.24,160.69c-15.87-19.04-25.06-36.84-34-53.53-17.68,3.51-34.72,6.72-49.57,6.78,3.92,8.32,7.75,15.63,11.27,21.94,7.01,12.6,13.53,22.57,19.5,30.46,16.98-.04,35-2.47,52.8-5.65ZM75.59,53.23c8.99-3.82,19.12-8.2,30.46-12.73-12.79-9.21-25.04-14.26-33.74-17.14h0c-6.78,5.71-13.08,11.65-20.14,16.13,5.05,2.13,13.93,6.32,23.42,13.74ZM100.03,97.6c-7.19-12.85-15-25.01-26.6-36.56-14.12,4.49-26.16,7.55-35.67,7.73,4.49,13.77,9.34,26.11,14.15,36.97,1.89-.2,3.74-.44,5.52-.69,15.26-2.14,29.42-4.82,42.6-7.44ZM77.42,166.14c-9.49-12.85-16.36-25.94-20.11-33.1-3.43-6.54-6.36-12.98-8.97-19.34-5.85-.45-11.27-1.53-16.15-3.44-2.65-1.03-7.96-3.11-12.99-6.34,1.23,10.32,3.51,21.41,7.32,32.93,1.74,5.24,3.73,11.27,6.27,17.61,7.41,4.18,14.25,6.27,18.19,7.44,8.27,2.44,17.16,3.75,26.44,4.23ZM68.38,56.28c-8.15-7.29-15.54-12.1-19.79-14.68-5.15,2.77-10.77,4.7-17.3,5.19,1.79,6.8,3.7,13.31,5.68,19.53,7.92-.73,18.3-4.58,31.41-10.05ZM40.7,191.51c6.1,4.23,12.36,7.42,18.61,9.79-16-12.97-25.51-31.47-31.14-45.06h0c-2.57-1.82-4.41-3.37-5.53-4.35-5.67-4.96-9.92-10.21-13.08-14.87,4.77,19.42,12.9,33.19,16.66,39.43,1.79,2.97,3.37,5.36,4.47,6.96,2.89,2.71,6.21,5.47,10,8.1ZM19.77,98.15c6.73,6.92,16.26,8.4,25.63,8.07-3.3-8.74-6.11-17.31-8.87-25.75-1.36-4.16-2.6-8.15-3.72-11.91-5.02-.54-9.14-2.16-12.27-5.15-.52-.49-.97-.99-1.37-1.47-1.09,9.45-1.73,21.33-.68,34.78h0c.41.49.83.96,1.28,1.43Z" class="cls-3"></path>
    <ellipse ry="112.16" rx="108.02" cy="113.51" cx="109.37" class="cls-4"></ellipse>
  </g>
  <path d="M48.59,41.6c-.53-.27-1.06-.54-1.61-.8-4.4-2.09-8.72-3.33-12.71-4.04.25-.28.5-.55.75-.83,4,.1,8.7.7,13.76,2.32,1.19.38,2.32.8,3.4,1.23-1.19.7-2.39,1.41-3.58,2.11Z" class="cls-3"></path>
  <path d="M72.32,23.36c-.48-.15-.96-.3-1.45-.43-6.84-1.9-13.47-1.83-19.47-.79.57-.36,1.13-.72,1.7-1.08,5.81-1.66,12.86-2.6,20.54-1.23.81.15,1.61.31,2.38.5-1.23,1.01-2.47,2.03-3.7,3.04Z" class="cls-3"></path>
</svg>