<svg version="1.0" preserveAspectRatio="xMidYMid meet" height="262" viewBox="0 0 764.25 196.499994" zoomAndPan="magnify" width="1019" xmlns:xlink="http://www.w3.org/1999/xlink" xmlns="http://www.w3.org/2000/svg"><defs><g></g><clipPath id="2deb757fe2"><path clip-rule="nonzero" d="M 63 39.933594 L 258 39.933594 L 258 147.660156 L 63 147.660156 Z M 63 39.933594"></path></clipPath><clipPath id="af9e22f89a"><path clip-rule="nonzero" d="M 27.289062 57 L 99 57 L 99 130 L 27.289062 130 Z M 27.289062 57"></path></clipPath><clipPath id="1e5e48a16f"><path clip-rule="nonzero" d="M 306 39.933594 L 501 39.933594 L 501 147.660156 L 306 147.660156 Z M 306 39.933594"></path></clipPath><clipPath id="5ad76b3476"><path clip-rule="nonzero" d="M 548 39.933594 L 743.214844 39.933594 L 743.214844 147.660156 L 548 147.660156 Z M 548 39.933594"></path></clipPath></defs><g clip-path="url(#2deb757fe2)"><path fill-rule="nonzero" fill-opacity="1" d="M 63.332031 39.957031 L 63.332031 147.902344 L 213.914062 147.902344 L 257.640625 93.929688 L 213.914062 39.957031 Z M 63.332031 39.957031" fill="#f2f3f5"></path></g><g clip-path="url(#af9e22f89a)"><path fill-rule="nonzero" fill-opacity="1" d="M 98.902344 93.648438 C 98.902344 94.820312 98.84375 95.988281 98.730469 97.15625 C 98.613281 98.324219 98.441406 99.480469 98.214844 100.632812 C 97.984375 101.78125 97.699219 102.917969 97.359375 104.039062 C 97.019531 105.164062 96.625 106.265625 96.175781 107.347656 C 95.726562 108.433594 95.226562 109.492188 94.675781 110.527344 C 94.121094 111.558594 93.519531 112.566406 92.867188 113.539062 C 92.214844 114.515625 91.519531 115.457031 90.773438 116.363281 C 90.03125 117.269531 89.242188 118.136719 88.414062 118.964844 C 87.585938 119.796875 86.71875 120.582031 85.8125 121.328125 C 84.90625 122.070312 83.964844 122.769531 82.988281 123.417969 C 82.011719 124.070312 81.007812 124.671875 79.972656 125.226562 C 78.941406 125.777344 77.882812 126.28125 76.796875 126.730469 C 75.714844 127.175781 74.613281 127.570312 73.488281 127.914062 C 72.367188 128.253906 71.230469 128.539062 70.082031 128.765625 C 68.929688 128.996094 67.773438 129.167969 66.605469 129.28125 C 65.4375 129.398438 64.265625 129.453125 63.09375 129.453125 C 61.921875 129.453125 60.753906 129.398438 59.585938 129.28125 C 58.417969 129.167969 57.257812 128.996094 56.109375 128.765625 C 54.957031 128.539062 53.824219 128.253906 52.699219 127.914062 C 51.578125 127.570312 50.476562 127.175781 49.390625 126.730469 C 48.308594 126.28125 47.25 125.777344 46.214844 125.226562 C 45.179688 124.671875 44.175781 124.070312 43.199219 123.417969 C 42.226562 122.769531 41.285156 122.070312 40.378906 121.328125 C 39.472656 120.582031 38.605469 119.796875 37.773438 118.964844 C 36.945312 118.136719 36.160156 117.269531 35.414062 116.363281 C 34.671875 115.457031 33.972656 114.515625 33.320312 113.539062 C 32.671875 112.566406 32.066406 111.558594 31.515625 110.527344 C 30.960938 109.492188 30.460938 108.433594 30.011719 107.347656 C 29.5625 106.265625 29.167969 105.164062 28.828125 104.039062 C 28.488281 102.917969 28.203125 101.78125 27.976562 100.632812 C 27.746094 99.480469 27.574219 98.324219 27.460938 97.15625 C 27.34375 95.988281 27.289062 94.820312 27.289062 93.648438 C 27.289062 92.472656 27.34375 91.304688 27.460938 90.136719 C 27.574219 88.96875 27.746094 87.8125 27.976562 86.660156 C 28.203125 85.511719 28.488281 84.375 28.828125 83.253906 C 29.167969 82.128906 29.5625 81.027344 30.011719 79.945312 C 30.460938 78.859375 30.960938 77.800781 31.515625 76.765625 C 32.066406 75.734375 32.671875 74.726562 33.320312 73.753906 C 33.972656 72.777344 34.671875 71.835938 35.414062 70.929688 C 36.160156 70.023438 36.945312 69.15625 37.773438 68.328125 C 38.605469 67.496094 39.472656 66.710938 40.378906 65.96875 C 41.285156 65.222656 42.226562 64.523438 43.199219 63.875 C 44.175781 63.222656 45.179688 62.621094 46.214844 62.066406 C 47.25 61.515625 48.308594 61.011719 49.390625 60.566406 C 50.476562 60.117188 51.578125 59.722656 52.699219 59.378906 C 53.824219 59.039062 54.957031 58.753906 56.109375 58.527344 C 57.257812 58.296875 58.417969 58.125 59.585938 58.011719 C 60.753906 57.894531 61.921875 57.839844 63.09375 57.839844 C 64.265625 57.839844 65.4375 57.894531 66.605469 58.011719 C 67.773438 58.125 68.929688 58.296875 70.082031 58.527344 C 71.230469 58.753906 72.367188 59.039062 73.488281 59.378906 C 74.613281 59.722656 75.714844 60.117188 76.796875 60.566406 C 77.882812 61.011719 78.941406 61.515625 79.972656 62.066406 C 81.007812 62.621094 82.011719 63.222656 82.988281 63.875 C 83.964844 64.523438 84.90625 65.222656 85.8125 65.96875 C 86.71875 66.710938 87.585938 67.496094 88.414062 68.328125 C 89.242188 69.15625 90.03125 70.023438 90.773438 70.929688 C 91.519531 71.835938 92.214844 72.777344 92.867188 73.753906 C 93.519531 74.726562 94.121094 75.734375 94.675781 76.765625 C 95.226562 77.800781 95.726562 78.859375 96.175781 79.945312 C 96.625 81.027344 97.019531 82.128906 97.359375 83.253906 C 97.699219 84.375 97.984375 85.511719 98.214844 86.660156 C 98.441406 87.8125 98.613281 88.96875 98.730469 90.136719 C 98.84375 91.304688 98.902344 92.472656 98.902344 93.648438 Z M 98.902344 93.648438" fill="#dcdde0"></path></g><path fill-rule="nonzero" fill-opacity="1" d="M 92.027344 93.648438 C 92.027344 94.59375 91.980469 95.539062 91.886719 96.480469 C 91.792969 97.425781 91.65625 98.363281 91.46875 99.289062 C 91.285156 100.21875 91.054688 101.136719 90.78125 102.042969 C 90.503906 102.953125 90.1875 103.84375 89.824219 104.71875 C 89.460938 105.59375 89.054688 106.449219 88.609375 107.285156 C 88.164062 108.121094 87.675781 108.933594 87.148438 109.71875 C 86.625 110.507812 86.058594 111.269531 85.457031 112 C 84.855469 112.734375 84.222656 113.433594 83.550781 114.105469 C 82.882812 114.773438 82.179688 115.410156 81.449219 116.011719 C 80.714844 116.613281 79.957031 117.175781 79.167969 117.703125 C 78.378906 118.226562 77.566406 118.714844 76.734375 119.160156 C 75.898438 119.609375 75.042969 120.011719 74.167969 120.375 C 73.289062 120.738281 72.398438 121.054688 71.492188 121.332031 C 70.585938 121.605469 69.667969 121.835938 68.738281 122.019531 C 67.808594 122.207031 66.875 122.34375 65.929688 122.4375 C 64.988281 122.53125 64.042969 122.578125 63.09375 122.578125 C 62.148438 122.578125 61.203125 122.53125 60.257812 122.4375 C 59.316406 122.34375 58.378906 122.207031 57.449219 122.019531 C 56.519531 121.835938 55.601562 121.605469 54.695312 121.332031 C 53.789062 121.054688 52.898438 120.738281 52.023438 120.375 C 51.148438 120.011719 50.292969 119.609375 49.457031 119.160156 C 48.621094 118.714844 47.808594 118.226562 47.023438 117.703125 C 46.234375 117.175781 45.472656 116.613281 44.742188 116.011719 C 44.007812 115.410156 43.308594 114.773438 42.636719 114.105469 C 41.96875 113.433594 41.332031 112.734375 40.730469 112 C 40.128906 111.269531 39.566406 110.507812 39.039062 109.71875 C 38.511719 108.933594 38.027344 108.121094 37.582031 107.285156 C 37.132812 106.449219 36.730469 105.59375 36.367188 104.71875 C 36.003906 103.84375 35.683594 102.953125 35.410156 102.042969 C 35.136719 101.136719 34.90625 100.21875 34.71875 99.289062 C 34.535156 98.363281 34.394531 97.425781 34.304688 96.480469 C 34.210938 95.539062 34.164062 94.59375 34.164062 93.648438 C 34.164062 92.699219 34.210938 91.753906 34.304688 90.8125 C 34.394531 89.867188 34.535156 88.933594 34.71875 88.003906 C 34.90625 87.074219 35.136719 86.15625 35.410156 85.25 C 35.683594 84.339844 36.003906 83.449219 36.367188 82.574219 C 36.730469 81.699219 37.132812 80.84375 37.582031 80.007812 C 38.027344 79.171875 38.511719 78.363281 39.039062 77.574219 C 39.566406 76.785156 40.128906 76.027344 40.730469 75.292969 C 41.332031 74.5625 41.96875 73.859375 42.636719 73.191406 C 43.308594 72.519531 44.007812 71.882812 44.742188 71.28125 C 45.472656 70.683594 46.234375 70.117188 47.023438 69.589844 C 47.808594 69.066406 48.621094 68.578125 49.457031 68.132812 C 50.292969 67.683594 51.148438 67.28125 52.023438 66.917969 C 52.898438 66.554688 53.789062 66.238281 54.695312 65.960938 C 55.601562 65.6875 56.519531 65.457031 57.449219 65.273438 C 58.378906 65.085938 59.316406 64.949219 60.257812 64.855469 C 61.203125 64.761719 62.148438 64.714844 63.09375 64.714844 C 64.042969 64.714844 64.988281 64.761719 65.929688 64.855469 C 66.875 64.949219 67.808594 65.085938 68.738281 65.273438 C 69.667969 65.457031 70.585938 65.6875 71.492188 65.960938 C 72.398438 66.238281 73.289062 66.554688 74.167969 66.917969 C 75.042969 67.28125 75.898438 67.683594 76.734375 68.132812 C 77.566406 68.578125 78.378906 69.066406 79.167969 69.589844 C 79.957031 70.117188 80.714844 70.683594 81.449219 71.28125 C 82.179688 71.882812 82.882812 72.519531 83.550781 73.191406 C 84.222656 73.859375 84.855469 74.5625 85.457031 75.292969 C 86.058594 76.027344 86.625 76.785156 87.148438 77.574219 C 87.675781 78.363281 88.164062 79.171875 88.609375 80.007812 C 89.054688 80.84375 89.460938 81.699219 89.824219 82.574219 C 90.1875 83.449219 90.503906 84.339844 90.78125 85.25 C 91.054688 86.15625 91.285156 87.074219 91.46875 88.003906 C 91.65625 88.933594 91.792969 89.867188 91.886719 90.8125 C 91.980469 91.753906 92.027344 92.699219 92.027344 93.648438 Z M 92.027344 93.648438" fill="#003d59"></path><g clip-path="url(#1e5e48a16f)"><path fill-rule="nonzero" fill-opacity="1" d="M 306.160156 39.957031 L 306.160156 147.902344 L 456.742188 147.902344 L 500.46875 93.929688 L 456.742188 39.957031 Z M 306.160156 39.957031" fill="#f2f3f5"></path></g><path fill-rule="nonzero" fill-opacity="1" d="M 341.730469 93.648438 C 341.730469 94.820312 341.671875 95.988281 341.558594 97.15625 C 341.441406 98.324219 341.269531 99.480469 341.042969 100.632812 C 340.8125 101.78125 340.527344 102.917969 340.1875 104.039062 C 339.847656 105.164062 339.453125 106.265625 339.003906 107.347656 C 338.554688 108.433594 338.054688 109.492188 337.503906 110.527344 C 336.949219 111.558594 336.347656 112.566406 335.695312 113.539062 C 335.042969 114.515625 334.347656 115.457031 333.601562 116.363281 C 332.859375 117.269531 332.070312 118.136719 331.242188 118.964844 C 330.414062 119.796875 329.546875 120.582031 328.640625 121.328125 C 327.730469 122.070312 326.792969 122.769531 325.816406 123.417969 C 324.839844 124.070312 323.835938 124.671875 322.800781 125.226562 C 321.769531 125.777344 320.710938 126.28125 319.625 126.730469 C 318.542969 127.175781 317.4375 127.570312 316.316406 127.914062 C 315.195312 128.253906 314.058594 128.539062 312.910156 128.765625 C 311.757812 128.996094 310.597656 129.167969 309.433594 129.28125 C 308.265625 129.398438 307.09375 129.453125 305.921875 129.453125 C 304.75 129.453125 303.578125 129.398438 302.414062 129.28125 C 301.246094 129.167969 300.085938 128.996094 298.9375 128.765625 C 297.785156 128.539062 296.652344 128.253906 295.527344 127.914062 C 294.40625 127.570312 293.304688 127.175781 292.21875 126.730469 C 291.136719 126.28125 290.078125 125.777344 289.042969 125.226562 C 288.007812 124.671875 287.003906 124.070312 286.027344 123.417969 C 285.054688 122.769531 284.113281 122.070312 283.207031 121.328125 C 282.300781 120.582031 281.433594 119.796875 280.601562 118.964844 C 279.773438 118.136719 278.988281 117.269531 278.242188 116.363281 C 277.5 115.457031 276.800781 114.515625 276.148438 113.539062 C 275.5 112.566406 274.894531 111.558594 274.34375 110.527344 C 273.789062 109.492188 273.289062 108.433594 272.839844 107.347656 C 272.390625 106.265625 271.996094 105.164062 271.65625 104.039062 C 271.316406 102.917969 271.03125 101.78125 270.804688 100.632812 C 270.574219 99.480469 270.402344 98.324219 270.289062 97.15625 C 270.171875 95.988281 270.113281 94.820312 270.113281 93.648438 C 270.113281 92.472656 270.171875 91.304688 270.289062 90.136719 C 270.402344 88.96875 270.574219 87.8125 270.804688 86.660156 C 271.03125 85.511719 271.316406 84.375 271.65625 83.253906 C 271.996094 82.128906 272.390625 81.027344 272.839844 79.945312 C 273.289062 78.859375 273.789062 77.800781 274.34375 76.765625 C 274.894531 75.734375 275.5 74.726562 276.148438 73.753906 C 276.800781 72.777344 277.5 71.835938 278.242188 70.929688 C 278.988281 70.023438 279.773438 69.15625 280.601562 68.328125 C 281.433594 67.496094 282.300781 66.710938 283.207031 65.96875 C 284.113281 65.222656 285.054688 64.523438 286.027344 63.875 C 287.003906 63.222656 288.007812 62.621094 289.042969 62.066406 C 290.078125 61.515625 291.136719 61.011719 292.21875 60.566406 C 293.304688 60.117188 294.40625 59.722656 295.527344 59.378906 C 296.652344 59.039062 297.785156 58.753906 298.9375 58.527344 C 300.085938 58.296875 301.246094 58.125 302.414062 58.011719 C 303.578125 57.894531 304.75 57.839844 305.921875 57.839844 C 307.09375 57.839844 308.265625 57.894531 309.433594 58.011719 C 310.597656 58.125 311.757812 58.296875 312.910156 58.527344 C 314.058594 58.753906 315.195312 59.039062 316.316406 59.378906 C 317.4375 59.722656 318.542969 60.117188 319.625 60.566406 C 320.710938 61.011719 321.769531 61.515625 322.800781 62.066406 C 323.835938 62.621094 324.839844 63.222656 325.816406 63.875 C 326.792969 64.523438 327.730469 65.222656 328.640625 65.96875 C 329.546875 66.710938 330.414062 67.496094 331.242188 68.328125 C 332.070312 69.15625 332.859375 70.023438 333.601562 70.929688 C 334.347656 71.835938 335.042969 72.777344 335.695312 73.753906 C 336.347656 74.726562 336.949219 75.734375 337.503906 76.765625 C 338.054688 77.800781 338.554688 78.859375 339.003906 79.945312 C 339.453125 81.027344 339.847656 82.128906 340.1875 83.253906 C 340.527344 84.375 340.8125 85.511719 341.042969 86.660156 C 341.269531 87.8125 341.441406 88.96875 341.558594 90.136719 C 341.671875 91.304688 341.730469 92.472656 341.730469 93.648438 Z M 341.730469 93.648438" fill="#dcdde0"></path><path fill-rule="nonzero" fill-opacity="1" d="M 334.851562 93.648438 C 334.851562 94.59375 334.808594 95.539062 334.714844 96.480469 C 334.621094 97.425781 334.480469 98.363281 334.296875 99.289062 C 334.113281 100.21875 333.882812 101.136719 333.609375 102.042969 C 333.332031 102.953125 333.011719 103.84375 332.652344 104.71875 C 332.289062 105.59375 331.882812 106.449219 331.4375 107.285156 C 330.992188 108.121094 330.503906 108.933594 329.976562 109.71875 C 329.449219 110.507812 328.886719 111.269531 328.285156 112 C 327.683594 112.734375 327.050781 113.433594 326.378906 114.105469 C 325.710938 114.773438 325.007812 115.410156 324.277344 116.011719 C 323.542969 116.613281 322.785156 117.175781 321.996094 117.703125 C 321.207031 118.226562 320.394531 118.714844 319.558594 119.160156 C 318.726562 119.609375 317.871094 120.011719 316.992188 120.375 C 316.117188 120.738281 315.226562 121.054688 314.320312 121.332031 C 313.414062 121.605469 312.496094 121.835938 311.566406 122.019531 C 310.636719 122.207031 309.703125 122.34375 308.757812 122.4375 C 307.816406 122.53125 306.871094 122.578125 305.921875 122.578125 C 304.976562 122.578125 304.03125 122.53125 303.085938 122.4375 C 302.144531 122.34375 301.207031 122.207031 300.277344 122.019531 C 299.347656 121.835938 298.429688 121.605469 297.523438 121.332031 C 296.617188 121.054688 295.726562 120.738281 294.851562 120.375 C 293.976562 120.011719 293.121094 119.609375 292.285156 119.160156 C 291.449219 118.714844 290.636719 118.226562 289.847656 117.703125 C 289.0625 117.175781 288.300781 116.613281 287.570312 116.011719 C 286.835938 115.410156 286.136719 114.773438 285.464844 114.105469 C 284.796875 113.433594 284.160156 112.734375 283.558594 112 C 282.957031 111.269531 282.394531 110.507812 281.867188 109.71875 C 281.339844 108.933594 280.855469 108.121094 280.40625 107.285156 C 279.960938 106.449219 279.558594 105.59375 279.195312 104.71875 C 278.832031 103.84375 278.511719 102.953125 278.238281 102.042969 C 277.960938 101.136719 277.734375 100.21875 277.546875 99.289062 C 277.363281 98.363281 277.222656 97.425781 277.132812 96.480469 C 277.039062 95.539062 276.992188 94.59375 276.992188 93.648438 C 276.992188 92.699219 277.039062 91.753906 277.132812 90.8125 C 277.222656 89.867188 277.363281 88.933594 277.546875 88.003906 C 277.734375 87.074219 277.960938 86.15625 278.238281 85.25 C 278.511719 84.339844 278.832031 83.449219 279.195312 82.574219 C 279.558594 81.699219 279.960938 80.84375 280.40625 80.007812 C 280.855469 79.171875 281.339844 78.363281 281.867188 77.574219 C 282.394531 76.785156 282.957031 76.027344 283.558594 75.292969 C 284.160156 74.5625 284.796875 73.859375 285.464844 73.191406 C 286.136719 72.519531 286.835938 71.882812 287.570312 71.28125 C 288.300781 70.683594 289.0625 70.117188 289.847656 69.589844 C 290.636719 69.066406 291.449219 68.578125 292.285156 68.132812 C 293.121094 67.683594 293.976562 67.28125 294.851562 66.917969 C 295.726562 66.554688 296.617188 66.238281 297.523438 65.960938 C 298.429688 65.6875 299.347656 65.457031 300.277344 65.273438 C 301.207031 65.085938 302.144531 64.949219 303.085938 64.855469 C 304.03125 64.761719 304.976562 64.714844 305.921875 64.714844 C 306.871094 64.714844 307.816406 64.761719 308.757812 64.855469 C 309.703125 64.949219 310.636719 65.085938 311.566406 65.273438 C 312.496094 65.457031 313.414062 65.6875 314.320312 65.960938 C 315.226562 66.238281 316.117188 66.554688 316.992188 66.917969 C 317.871094 67.28125 318.726562 67.683594 319.558594 68.132812 C 320.394531 68.578125 321.207031 69.066406 321.996094 69.589844 C 322.785156 70.117188 323.542969 70.683594 324.277344 71.28125 C 325.007812 71.882812 325.710938 72.519531 326.378906 73.191406 C 327.050781 73.859375 327.683594 74.5625 328.285156 75.292969 C 328.886719 76.027344 329.449219 76.785156 329.976562 77.574219 C 330.503906 78.363281 330.992188 79.171875 331.4375 80.007812 C 331.882812 80.84375 332.289062 81.699219 332.652344 82.574219 C 333.011719 83.449219 333.332031 84.339844 333.609375 85.25 C 333.882812 86.15625 334.113281 87.074219 334.296875 88.003906 C 334.480469 88.933594 334.621094 89.867188 334.714844 90.8125 C 334.808594 91.753906 334.851562 92.699219 334.851562 93.648438 Z M 334.851562 93.648438" fill="#0087cd"></path><g clip-path="url(#5ad76b3476)"><path fill-rule="nonzero" fill-opacity="1" d="M 548.988281 39.957031 L 548.988281 147.902344 L 699.570312 147.902344 L 743.296875 93.929688 L 699.570312 39.957031 Z M 548.988281 39.957031" fill="#f2f3f5"></path></g><path fill-rule="nonzero" fill-opacity="1" d="M 584.558594 93.648438 C 584.558594 94.820312 584.5 95.988281 584.386719 97.15625 C 584.269531 98.324219 584.097656 99.480469 583.871094 100.632812 C 583.640625 101.78125 583.355469 102.917969 583.015625 104.039062 C 582.675781 105.164062 582.28125 106.265625 581.832031 107.347656 C 581.382812 108.433594 580.882812 109.492188 580.328125 110.527344 C 579.777344 111.558594 579.175781 112.566406 578.523438 113.539062 C 577.871094 114.515625 577.175781 115.457031 576.429688 116.363281 C 575.6875 117.269531 574.898438 118.136719 574.070312 118.964844 C 573.242188 119.796875 572.375 120.582031 571.464844 121.328125 C 570.558594 122.070312 569.617188 122.769531 568.644531 123.417969 C 567.667969 124.070312 566.664062 124.671875 565.628906 125.226562 C 564.597656 125.777344 563.535156 126.28125 562.453125 126.730469 C 561.371094 127.175781 560.265625 127.570312 559.144531 127.914062 C 558.023438 128.253906 556.886719 128.539062 555.734375 128.765625 C 554.585938 128.996094 553.425781 129.167969 552.261719 129.28125 C 551.09375 129.398438 549.921875 129.453125 548.75 129.453125 C 547.578125 129.453125 546.40625 129.398438 545.242188 129.28125 C 544.074219 129.167969 542.914062 128.996094 541.765625 128.765625 C 540.613281 128.539062 539.476562 128.253906 538.355469 127.914062 C 537.234375 127.570312 536.128906 127.175781 535.046875 126.730469 C 533.964844 126.28125 532.90625 125.777344 531.871094 125.226562 C 530.835938 124.671875 529.832031 124.070312 528.855469 123.417969 C 527.882812 122.769531 526.941406 122.070312 526.035156 121.328125 C 525.128906 120.582031 524.261719 119.796875 523.429688 118.964844 C 522.601562 118.136719 521.816406 117.269531 521.070312 116.363281 C 520.328125 115.457031 519.628906 114.515625 518.976562 113.539062 C 518.324219 112.566406 517.722656 111.558594 517.171875 110.527344 C 516.617188 109.492188 516.117188 108.433594 515.667969 107.347656 C 515.21875 106.265625 514.824219 105.164062 514.484375 104.039062 C 514.144531 102.917969 513.859375 101.78125 513.628906 100.632812 C 513.402344 99.480469 513.230469 98.324219 513.113281 97.15625 C 513 95.988281 512.941406 94.820312 512.941406 93.648438 C 512.941406 92.472656 513 91.304688 513.113281 90.136719 C 513.230469 88.96875 513.402344 87.8125 513.628906 86.660156 C 513.859375 85.511719 514.144531 84.375 514.484375 83.253906 C 514.824219 82.128906 515.21875 81.027344 515.667969 79.945312 C 516.117188 78.859375 516.617188 77.800781 517.171875 76.765625 C 517.722656 75.734375 518.324219 74.726562 518.976562 73.753906 C 519.628906 72.777344 520.328125 71.835938 521.070312 70.929688 C 521.816406 70.023438 522.601562 69.15625 523.429688 68.328125 C 524.261719 67.496094 525.128906 66.710938 526.035156 65.96875 C 526.941406 65.222656 527.882812 64.523438 528.855469 63.875 C 529.832031 63.222656 530.835938 62.621094 531.871094 62.066406 C 532.90625 61.515625 533.964844 61.011719 535.046875 60.566406 C 536.132812 60.117188 537.234375 59.722656 538.355469 59.378906 C 539.476562 59.039062 540.613281 58.753906 541.765625 58.527344 C 542.914062 58.296875 544.074219 58.125 545.242188 58.011719 C 546.40625 57.894531 547.578125 57.839844 548.75 57.839844 C 549.921875 57.839844 551.09375 57.894531 552.261719 58.011719 C 553.425781 58.125 554.585938 58.296875 555.734375 58.527344 C 556.886719 58.753906 558.023438 59.039062 559.144531 59.378906 C 560.265625 59.722656 561.371094 60.117188 562.453125 60.566406 C 563.535156 61.011719 564.597656 61.515625 565.628906 62.066406 C 566.664062 62.621094 567.667969 63.222656 568.644531 63.875 C 569.617188 64.523438 570.558594 65.222656 571.464844 65.96875 C 572.375 66.710938 573.242188 67.496094 574.070312 68.328125 C 574.898438 69.15625 575.6875 70.023438 576.429688 70.929688 C 577.175781 71.835938 577.871094 72.777344 578.523438 73.753906 C 579.175781 74.726562 579.777344 75.734375 580.328125 76.765625 C 580.882812 77.800781 581.382812 78.859375 581.832031 79.945312 C 582.28125 81.027344 582.675781 82.128906 583.015625 83.253906 C 583.355469 84.375 583.640625 85.511719 583.871094 86.660156 C 584.097656 87.8125 584.269531 88.96875 584.386719 90.136719 C 584.5 91.304688 584.558594 92.472656 584.558594 93.648438 Z M 584.558594 93.648438" fill="#dcdde0"></path><path fill-rule="nonzero" fill-opacity="1" d="M 577.679688 93.648438 C 577.679688 94.59375 577.632812 95.539062 577.542969 96.480469 C 577.449219 97.425781 577.308594 98.363281 577.125 99.289062 C 576.941406 100.21875 576.710938 101.136719 576.433594 102.042969 C 576.160156 102.953125 575.839844 103.84375 575.480469 104.71875 C 575.117188 105.59375 574.710938 106.449219 574.265625 107.285156 C 573.816406 108.121094 573.332031 108.933594 572.804688 109.71875 C 572.277344 110.507812 571.714844 111.269531 571.113281 112 C 570.511719 112.734375 569.878906 113.433594 569.207031 114.105469 C 568.539062 114.773438 567.835938 115.410156 567.105469 116.011719 C 566.371094 116.613281 565.609375 117.175781 564.824219 117.703125 C 564.035156 118.226562 563.222656 118.714844 562.386719 119.160156 C 561.550781 119.609375 560.695312 120.011719 559.820312 120.375 C 558.945312 120.738281 558.054688 121.054688 557.148438 121.332031 C 556.242188 121.605469 555.324219 121.835938 554.394531 122.019531 C 553.464844 122.207031 552.527344 122.34375 551.585938 122.4375 C 550.644531 122.53125 549.699219 122.578125 548.75 122.578125 C 547.804688 122.578125 546.859375 122.53125 545.914062 122.4375 C 544.972656 122.34375 544.035156 122.207031 543.105469 122.019531 C 542.175781 121.835938 541.257812 121.605469 540.351562 121.332031 C 539.445312 121.054688 538.554688 120.738281 537.679688 120.375 C 536.804688 120.011719 535.949219 119.609375 535.113281 119.160156 C 534.277344 118.714844 533.464844 118.226562 532.675781 117.703125 C 531.890625 117.175781 531.128906 116.613281 530.398438 116.011719 C 529.664062 115.410156 528.964844 114.773438 528.292969 114.105469 C 527.625 113.433594 526.988281 112.734375 526.386719 112 C 525.785156 111.269531 525.222656 110.507812 524.695312 109.71875 C 524.167969 108.933594 523.683594 108.121094 523.234375 107.285156 C 522.789062 106.449219 522.382812 105.59375 522.023438 104.71875 C 521.660156 103.84375 521.339844 102.953125 521.066406 102.042969 C 520.789062 101.136719 520.558594 100.21875 520.375 99.289062 C 520.191406 98.363281 520.050781 97.425781 519.960938 96.480469 C 519.867188 95.539062 519.820312 94.59375 519.820312 93.648438 C 519.820312 92.699219 519.867188 91.753906 519.960938 90.8125 C 520.050781 89.867188 520.191406 88.933594 520.375 88.003906 C 520.558594 87.074219 520.789062 86.15625 521.066406 85.25 C 521.339844 84.339844 521.660156 83.449219 522.023438 82.574219 C 522.382812 81.699219 522.789062 80.84375 523.234375 80.007812 C 523.683594 79.171875 524.167969 78.363281 524.695312 77.574219 C 525.222656 76.785156 525.785156 76.027344 526.386719 75.292969 C 526.988281 74.5625 527.625 73.859375 528.292969 73.191406 C 528.964844 72.519531 529.664062 71.882812 530.398438 71.28125 C 531.128906 70.683594 531.890625 70.117188 532.675781 69.589844 C 533.464844 69.066406 534.277344 68.578125 535.113281 68.132812 C 535.949219 67.683594 536.804688 67.28125 537.679688 66.917969 C 538.554688 66.554688 539.445312 66.238281 540.351562 65.960938 C 541.257812 65.6875 542.175781 65.457031 543.105469 65.273438 C 544.035156 65.085938 544.972656 64.949219 545.914062 64.855469 C 546.859375 64.761719 547.804688 64.714844 548.75 64.714844 C 549.699219 64.714844 550.644531 64.761719 551.585938 64.855469 C 552.527344 64.949219 553.464844 65.085938 554.394531 65.273438 C 555.324219 65.457031 556.242188 65.6875 557.148438 65.960938 C 558.054688 66.238281 558.945312 66.554688 559.820312 66.917969 C 560.695312 67.28125 561.550781 67.683594 562.386719 68.132812 C 563.222656 68.578125 564.035156 69.066406 564.824219 69.589844 C 565.609375 70.117188 566.371094 70.683594 567.105469 71.28125 C 567.835938 71.882812 568.539062 72.519531 569.207031 73.191406 C 569.878906 73.859375 570.511719 74.5625 571.113281 75.292969 C 571.714844 76.027344 572.277344 76.785156 572.804688 77.574219 C 573.332031 78.363281 573.816406 79.171875 574.265625 80.007812 C 574.710938 80.84375 575.117188 81.699219 575.480469 82.574219 C 575.839844 83.449219 576.160156 84.339844 576.433594 85.25 C 576.710938 86.15625 576.941406 87.074219 577.125 88.003906 C 577.308594 88.933594 577.449219 89.867188 577.542969 90.8125 C 577.632812 91.753906 577.679688 92.699219 577.679688 93.648438 Z M 577.679688 93.648438" fill="#003d59"></path><g fill-opacity="1" fill="#000000"><g transform="translate(112.212157, 98.995677)"><g><path d="M 6.9375 0.28125 C 5.757812 0.28125 4.707031 0 3.78125 -0.5625 C 2.851562 -1.125 2.128906 -1.890625 1.609375 -2.859375 C 1.085938 -3.828125 0.828125 -4.90625 0.828125 -6.09375 C 0.828125 -7.257812 1.0625 -8.359375 1.53125 -9.390625 C 2.007812 -10.421875 2.71875 -11.253906 3.65625 -11.890625 C 4.59375 -12.535156 5.726562 -12.859375 7.0625 -12.859375 C 8.375 -12.859375 9.582031 -12.492188 10.6875 -11.765625 L 10.59375 -12.734375 L 11.5625 -12.734375 L 11.5625 -8.5625 L 10.921875 -8.5625 C 10.796875 -9.675781 10.398438 -10.546875 9.734375 -11.171875 C 9.078125 -11.804688 8.226562 -12.125 7.1875 -12.125 C 6.332031 -12.125 5.554688 -11.882812 4.859375 -11.40625 C 4.160156 -10.9375 3.601562 -10.265625 3.1875 -9.390625 C 2.78125 -8.515625 2.578125 -7.503906 2.578125 -6.359375 C 2.578125 -5.253906 2.789062 -4.265625 3.21875 -3.390625 C 3.65625 -2.523438 4.238281 -1.847656 4.96875 -1.359375 C 5.695312 -0.878906 6.503906 -0.640625 7.390625 -0.640625 C 8.191406 -0.640625 8.960938 -0.816406 9.703125 -1.171875 C 10.453125 -1.535156 11.066406 -2.046875 11.546875 -2.703125 L 12.015625 -2.328125 C 11.316406 -1.359375 10.519531 -0.679688 9.625 -0.296875 C 8.726562 0.0859375 7.832031 0.28125 6.9375 0.28125 Z M 6.9375 0.28125"></path></g></g></g><g fill-opacity="1" fill="#000000"><g transform="translate(124.754084, 98.995677)"><g><path d="M 7.21875 0.28125 C 5.78125 0.28125 4.582031 -0.03125 3.625 -0.65625 C 2.664062 -1.289062 1.957031 -2.109375 1.5 -3.109375 C 1.050781 -4.109375 0.828125 -5.164062 0.828125 -6.28125 C 0.828125 -7.34375 1.0625 -8.375 1.53125 -9.375 C 2.007812 -10.382812 2.71875 -11.21875 3.65625 -11.875 C 4.59375 -12.53125 5.734375 -12.859375 7.078125 -12.859375 C 8.453125 -12.859375 9.617188 -12.53125 10.578125 -11.875 C 11.546875 -11.21875 12.269531 -10.382812 12.75 -9.375 C 13.226562 -8.375 13.46875 -7.34375 13.46875 -6.28125 C 13.46875 -5.226562 13.226562 -4.195312 12.75 -3.1875 C 12.28125 -2.175781 11.578125 -1.34375 10.640625 -0.6875 C 9.703125 -0.0390625 8.5625 0.28125 7.21875 0.28125 Z M 7.25 -0.453125 C 8.1875 -0.453125 8.984375 -0.71875 9.640625 -1.25 C 10.304688 -1.78125 10.8125 -2.460938 11.15625 -3.296875 C 11.5 -4.140625 11.671875 -5.019531 11.671875 -5.9375 C 11.671875 -6.957031 11.484375 -7.941406 11.109375 -8.890625 C 10.742188 -9.847656 10.207031 -10.628906 9.5 -11.234375 C 8.789062 -11.835938 7.960938 -12.140625 7.015625 -12.140625 C 6.085938 -12.140625 5.285156 -11.867188 4.609375 -11.328125 C 3.941406 -10.796875 3.4375 -10.101562 3.09375 -9.25 C 2.75 -8.40625 2.578125 -7.523438 2.578125 -6.609375 C 2.578125 -5.660156 2.75 -4.707031 3.09375 -3.75 C 3.445312 -2.800781 3.976562 -2.015625 4.6875 -1.390625 C 5.394531 -0.765625 6.25 -0.453125 7.25 -0.453125 Z M 7.25 -0.453125"></path></g></g></g><g fill-opacity="1" fill="#000000"><g transform="translate(138.839039, 98.995677)"><g><path d="M 3.015625 -10.171875 L 3 -10.171875 L 3.046875 -2.5 C 3.046875 -1.695312 3.035156 -1.101562 3.015625 -0.71875 L 4.3125 -0.796875 L 4.3125 0 L 1.015625 0 L 1.015625 -0.59375 C 1.492188 -0.59375 1.8125 -0.726562 1.96875 -1 C 2.125 -1.28125 2.203125 -1.617188 2.203125 -2.015625 L 2.21875 -11.84375 L 1.015625 -11.78125 L 1.015625 -12.5625 L 3.15625 -12.5625 L 10.8125 -2.328125 L 10.828125 -2.328125 L 10.84375 -10.5625 C 10.84375 -11.0625 10.859375 -11.488281 10.890625 -11.84375 L 9.609375 -11.78125 L 9.609375 -12.5625 L 12.90625 -12.5625 L 12.90625 -11.96875 C 12.550781 -11.957031 12.285156 -11.890625 12.109375 -11.765625 C 11.929688 -11.640625 11.816406 -11.46875 11.765625 -11.25 C 11.722656 -11.039062 11.703125 -10.753906 11.703125 -10.390625 L 11.703125 -9.765625 L 11.671875 0.28125 L 10.8125 0.28125 Z M 3.015625 -10.171875"></path></g></g></g><g fill-opacity="1" fill="#000000"><g transform="translate(152.511352, 98.995677)"><g><path d="M 0.984375 -0.59375 C 1.398438 -0.601562 1.695312 -0.695312 1.875 -0.875 C 2.0625 -1.0625 2.164062 -1.273438 2.1875 -1.515625 C 2.207031 -1.765625 2.21875 -2.191406 2.21875 -2.796875 L 2.21875 -10.5625 C 2.21875 -11.0625 2.238281 -11.488281 2.28125 -11.84375 L 0.984375 -11.78125 L 0.984375 -12.5625 L 9.3125 -12.5625 L 9.40625 -9.421875 L 8.8125 -9.421875 C 8.8125 -10.398438 8.585938 -11.066406 8.140625 -11.421875 C 7.703125 -11.785156 7.101562 -11.957031 6.34375 -11.9375 L 5.03125 -11.90625 C 4.613281 -11.894531 4.316406 -11.796875 4.140625 -11.609375 C 3.960938 -11.429688 3.859375 -11.210938 3.828125 -10.953125 C 3.796875 -10.703125 3.78125 -10.28125 3.78125 -9.6875 L 3.78125 -6.609375 L 6.90625 -6.59375 L 6.78125 -8.15625 L 7.578125 -8.15625 L 7.578125 -4.359375 L 7 -4.359375 C 7 -4.816406 6.945312 -5.160156 6.84375 -5.390625 C 6.75 -5.617188 6.59375 -5.773438 6.375 -5.859375 C 6.15625 -5.941406 5.851562 -5.984375 5.46875 -5.984375 C 5.207031 -5.984375 5.003906 -5.972656 4.859375 -5.953125 L 3.78125 -5.90625 L 3.78125 -2.140625 C 3.78125 -1.503906 3.765625 -1.03125 3.734375 -0.71875 L 5.5625 -0.796875 L 5.5625 0 L 0.984375 0 Z M 0.984375 -0.59375"></path></g></g></g><g fill-opacity="1" fill="#000000"><g transform="translate(162.343929, 98.995677)"><g><path d="M 0.984375 -0.59375 C 1.398438 -0.601562 1.695312 -0.695312 1.875 -0.875 C 2.0625 -1.0625 2.164062 -1.273438 2.1875 -1.515625 C 2.207031 -1.765625 2.21875 -2.191406 2.21875 -2.796875 L 2.21875 -10.5625 C 2.21875 -11.0625 2.238281 -11.488281 2.28125 -11.84375 L 0.984375 -11.78125 L 0.984375 -12.5625 L 5.03125 -12.5625 L 5.03125 -11.96875 C 4.613281 -11.957031 4.3125 -11.863281 4.125 -11.6875 C 3.945312 -11.507812 3.84375 -11.296875 3.8125 -11.046875 C 3.789062 -10.804688 3.78125 -10.378906 3.78125 -9.765625 L 3.78125 -2.140625 C 3.78125 -1.503906 3.765625 -1.03125 3.734375 -0.71875 L 5.03125 -0.796875 L 5.03125 0 L 0.984375 0 Z M 0.984375 -0.59375"></path></g></g></g><g fill-opacity="1" fill="#000000"><g transform="translate(168.354727, 98.995677)"><g><path d="M -0.109375 -0.59375 C 0.191406 -0.59375 0.429688 -0.660156 0.609375 -0.796875 C 0.785156 -0.929688 0.929688 -1.109375 1.046875 -1.328125 C 1.160156 -1.554688 1.296875 -1.890625 1.453125 -2.328125 L 1.640625 -2.84375 L 5.328125 -12.90625 L 5.765625 -12.90625 L 9.765625 -2.6875 C 9.898438 -2.363281 10.015625 -2.015625 10.109375 -1.640625 C 10.203125 -1.265625 10.242188 -0.957031 10.234375 -0.71875 L 11.453125 -0.796875 L 11.453125 0 L 7.34375 0 L 7.34375 -0.59375 C 8.050781 -0.601562 8.40625 -0.890625 8.40625 -1.453125 C 8.40625 -1.679688 8.34375 -1.960938 8.21875 -2.296875 L 7.59375 -3.984375 L 2.921875 -3.875 C 2.742188 -3.382812 2.535156 -2.742188 2.296875 -1.953125 C 2.179688 -1.554688 2.03125 -1.144531 1.84375 -0.71875 L 3.25 -0.796875 L 3.25 0 L -0.109375 0 Z M 7.34375 -4.65625 L 6.0625 -8.078125 L 5.265625 -10.28125 L 5.21875 -10.28125 L 4.46875 -8.265625 L 3.5 -5.53125 L 3.203125 -4.65625 Z M 7.34375 -4.65625"></path></g></g></g><g fill-opacity="1" fill="#000000"><g transform="translate(179.586834, 98.995677)"><g><path d="M 3.015625 -10.171875 L 3 -10.171875 L 3.046875 -2.5 C 3.046875 -1.695312 3.035156 -1.101562 3.015625 -0.71875 L 4.3125 -0.796875 L 4.3125 0 L 1.015625 0 L 1.015625 -0.59375 C 1.492188 -0.59375 1.8125 -0.726562 1.96875 -1 C 2.125 -1.28125 2.203125 -1.617188 2.203125 -2.015625 L 2.21875 -11.84375 L 1.015625 -11.78125 L 1.015625 -12.5625 L 3.15625 -12.5625 L 10.8125 -2.328125 L 10.828125 -2.328125 L 10.84375 -10.5625 C 10.84375 -11.0625 10.859375 -11.488281 10.890625 -11.84375 L 9.609375 -11.78125 L 9.609375 -12.5625 L 12.90625 -12.5625 L 12.90625 -11.96875 C 12.550781 -11.957031 12.285156 -11.890625 12.109375 -11.765625 C 11.929688 -11.640625 11.816406 -11.46875 11.765625 -11.25 C 11.722656 -11.039062 11.703125 -10.753906 11.703125 -10.390625 L 11.703125 -9.765625 L 11.671875 0.28125 L 10.8125 0.28125 Z M 3.015625 -10.171875"></path></g></g></g><g fill-opacity="1" fill="#000000"><g transform="translate(193.259147, 98.995677)"><g><path d="M 0.765625 -0.828125 L 0.984375 -1.125 C 3.078125 -4.007812 5.128906 -7.0625 7.140625 -10.28125 C 7.597656 -10.988281 7.984375 -11.53125 8.296875 -11.90625 L 3.71875 -11.828125 C 3 -11.804688 2.460938 -11.554688 2.109375 -11.078125 C 1.765625 -10.597656 1.59375 -9.851562 1.59375 -8.84375 L 0.984375 -8.84375 L 1.09375 -12.5625 L 10 -12.5625 L 10 -11.9375 L 3.5625 -2.15625 C 3.113281 -1.5 2.703125 -1.003906 2.328125 -0.671875 L 6.703125 -0.734375 C 7.535156 -0.742188 8.207031 -0.992188 8.71875 -1.484375 C 9.226562 -1.972656 9.484375 -2.707031 9.484375 -3.6875 L 10.09375 -3.6875 L 9.984375 0 L 0.765625 0 Z M 0.765625 -0.828125"></path></g></g></g><g fill-opacity="1" fill="#000000"><g transform="translate(204.204178, 98.995677)"><g><path d="M -0.109375 -0.59375 C 0.191406 -0.59375 0.429688 -0.660156 0.609375 -0.796875 C 0.785156 -0.929688 0.929688 -1.109375 1.046875 -1.328125 C 1.160156 -1.554688 1.296875 -1.890625 1.453125 -2.328125 L 1.640625 -2.84375 L 5.328125 -12.90625 L 5.765625 -12.90625 L 9.765625 -2.6875 C 9.898438 -2.363281 10.015625 -2.015625 10.109375 -1.640625 C 10.203125 -1.265625 10.242188 -0.957031 10.234375 -0.71875 L 11.453125 -0.796875 L 11.453125 0 L 7.34375 0 L 7.34375 -0.59375 C 8.050781 -0.601562 8.40625 -0.890625 8.40625 -1.453125 C 8.40625 -1.679688 8.34375 -1.960938 8.21875 -2.296875 L 7.59375 -3.984375 L 2.921875 -3.875 C 2.742188 -3.382812 2.535156 -2.742188 2.296875 -1.953125 C 2.179688 -1.554688 2.03125 -1.144531 1.84375 -0.71875 L 3.25 -0.796875 L 3.25 0 L -0.109375 0 Z M 7.34375 -4.65625 L 6.0625 -8.078125 L 5.265625 -10.28125 L 5.21875 -10.28125 L 4.46875 -8.265625 L 3.5 -5.53125 L 3.203125 -4.65625 Z M 7.34375 -4.65625"></path></g></g></g><g fill-opacity="1" fill="#000000"><g transform="translate(344.358361, 98.995677)"><g><path d="M 6.9375 0.28125 C 5.757812 0.28125 4.707031 0 3.78125 -0.5625 C 2.851562 -1.125 2.128906 -1.890625 1.609375 -2.859375 C 1.085938 -3.828125 0.828125 -4.90625 0.828125 -6.09375 C 0.828125 -7.257812 1.0625 -8.359375 1.53125 -9.390625 C 2.007812 -10.421875 2.71875 -11.253906 3.65625 -11.890625 C 4.59375 -12.535156 5.726562 -12.859375 7.0625 -12.859375 C 8.375 -12.859375 9.582031 -12.492188 10.6875 -11.765625 L 10.59375 -12.734375 L 11.5625 -12.734375 L 11.5625 -8.5625 L 10.921875 -8.5625 C 10.796875 -9.675781 10.398438 -10.546875 9.734375 -11.171875 C 9.078125 -11.804688 8.226562 -12.125 7.1875 -12.125 C 6.332031 -12.125 5.554688 -11.882812 4.859375 -11.40625 C 4.160156 -10.9375 3.601562 -10.265625 3.1875 -9.390625 C 2.78125 -8.515625 2.578125 -7.503906 2.578125 -6.359375 C 2.578125 -5.253906 2.789062 -4.265625 3.21875 -3.390625 C 3.65625 -2.523438 4.238281 -1.847656 4.96875 -1.359375 C 5.695312 -0.878906 6.503906 -0.640625 7.390625 -0.640625 C 8.191406 -0.640625 8.960938 -0.816406 9.703125 -1.171875 C 10.453125 -1.535156 11.066406 -2.046875 11.546875 -2.703125 L 12.015625 -2.328125 C 11.316406 -1.359375 10.519531 -0.679688 9.625 -0.296875 C 8.726562 0.0859375 7.832031 0.28125 6.9375 0.28125 Z M 6.9375 0.28125"></path></g></g></g><g fill-opacity="1" fill="#000000"><g transform="translate(356.900288, 98.995677)"><g><path d="M 7.21875 0.28125 C 5.78125 0.28125 4.582031 -0.03125 3.625 -0.65625 C 2.664062 -1.289062 1.957031 -2.109375 1.5 -3.109375 C 1.050781 -4.109375 0.828125 -5.164062 0.828125 -6.28125 C 0.828125 -7.34375 1.0625 -8.375 1.53125 -9.375 C 2.007812 -10.382812 2.71875 -11.21875 3.65625 -11.875 C 4.59375 -12.53125 5.734375 -12.859375 7.078125 -12.859375 C 8.453125 -12.859375 9.617188 -12.53125 10.578125 -11.875 C 11.546875 -11.21875 12.269531 -10.382812 12.75 -9.375 C 13.226562 -8.375 13.46875 -7.34375 13.46875 -6.28125 C 13.46875 -5.226562 13.226562 -4.195312 12.75 -3.1875 C 12.28125 -2.175781 11.578125 -1.34375 10.640625 -0.6875 C 9.703125 -0.0390625 8.5625 0.28125 7.21875 0.28125 Z M 7.25 -0.453125 C 8.1875 -0.453125 8.984375 -0.71875 9.640625 -1.25 C 10.304688 -1.78125 10.8125 -2.460938 11.15625 -3.296875 C 11.5 -4.140625 11.671875 -5.019531 11.671875 -5.9375 C 11.671875 -6.957031 11.484375 -7.941406 11.109375 -8.890625 C 10.742188 -9.847656 10.207031 -10.628906 9.5 -11.234375 C 8.789062 -11.835938 7.960938 -12.140625 7.015625 -12.140625 C 6.085938 -12.140625 5.285156 -11.867188 4.609375 -11.328125 C 3.941406 -10.796875 3.4375 -10.101562 3.09375 -9.25 C 2.75 -8.40625 2.578125 -7.523438 2.578125 -6.609375 C 2.578125 -5.660156 2.75 -4.707031 3.09375 -3.75 C 3.445312 -2.800781 3.976562 -2.015625 4.6875 -1.390625 C 5.394531 -0.765625 6.25 -0.453125 7.25 -0.453125 Z M 7.25 -0.453125"></path></g></g></g><g fill-opacity="1" fill="#000000"><g transform="translate(371.057033, 98.995677)"><g><path d="M 6.75 -2.0625 C 5.84375 -4.082031 5.132812 -5.675781 4.625 -6.84375 C 4.125 -8.007812 3.632812 -9.238281 3.15625 -10.53125 L 3.140625 -9.75 C 3.035156 -6.238281 2.96875 -3.738281 2.9375 -2.25 C 2.9375 -2.0625 2.929688 -1.925781 2.921875 -1.84375 C 2.921875 -1.4375 2.90625 -1.0625 2.875 -0.71875 L 4.21875 -0.796875 L 4.21875 0 L 0.796875 0 L 0.796875 -0.59375 C 1.296875 -0.601562 1.617188 -0.742188 1.765625 -1.015625 C 1.921875 -1.285156 2.007812 -1.695312 2.03125 -2.25 L 2.421875 -11.84375 L 1.125 -11.796875 L 1.125 -12.5625 L 3.875 -12.5625 L 6.3125 -6.9375 C 7.195312 -4.851562 7.878906 -3.269531 8.359375 -2.1875 L 8.40625 -2.1875 C 8.550781 -2.550781 8.851562 -3.320312 9.3125 -4.5 C 9.769531 -5.65625 10.289062 -6.921875 10.875 -8.296875 C 11.5625 -9.898438 12.148438 -11.320312 12.640625 -12.5625 L 15.296875 -12.5625 L 15.296875 -11.96875 C 14.867188 -11.988281 14.550781 -11.875 14.34375 -11.625 C 14.144531 -11.375 14.046875 -10.957031 14.046875 -10.375 L 14.0625 -10.015625 L 14.53125 -1.84375 C 14.550781 -1.570312 14.5625 -1.203125 14.5625 -0.734375 L 15.875 -0.796875 L 15.875 0 L 11.84375 0 L 11.84375 -0.59375 C 12.3125 -0.601562 12.628906 -0.734375 12.796875 -0.984375 C 12.960938 -1.242188 13.046875 -1.648438 13.046875 -2.203125 C 13.046875 -2.429688 13.039062 -2.609375 13.03125 -2.734375 L 12.5625 -10.375 C 12.539062 -10.3125 12.507812 -10.234375 12.46875 -10.140625 C 12.425781 -10.046875 12.378906 -9.929688 12.328125 -9.796875 L 8.296875 0.171875 L 7.75 0.171875 Z M 6.75 -2.0625"></path></g></g></g><g fill-opacity="1" fill="#000000"><g transform="translate(387.528406, 98.995677)"><g><path d="M 0.984375 -0.59375 C 1.398438 -0.601562 1.695312 -0.695312 1.875 -0.875 C 2.0625 -1.0625 2.164062 -1.273438 2.1875 -1.515625 C 2.207031 -1.765625 2.21875 -2.191406 2.21875 -2.796875 L 2.21875 -10.5625 C 2.21875 -11.0625 2.238281 -11.488281 2.28125 -11.84375 L 0.984375 -11.78125 L 0.984375 -12.5625 C 2.660156 -12.59375 3.992188 -12.609375 4.984375 -12.609375 C 6.773438 -12.609375 8.125 -12.296875 9.03125 -11.671875 C 9.945312 -11.046875 10.40625 -10.128906 10.40625 -8.921875 C 10.40625 -8.222656 10.222656 -7.554688 9.859375 -6.921875 C 9.492188 -6.296875 8.863281 -5.769531 7.96875 -5.34375 C 7.082031 -4.925781 5.90625 -4.71875 4.4375 -4.71875 C 4.15625 -4.71875 3.9375 -4.722656 3.78125 -4.734375 L 3.78125 -2.140625 C 3.78125 -1.503906 3.765625 -1.03125 3.734375 -0.71875 L 5.390625 -0.8125 L 5.390625 0 L 0.984375 0 Z M 4.953125 -5.421875 C 5.640625 -5.421875 6.265625 -5.554688 6.828125 -5.828125 C 7.398438 -6.097656 7.847656 -6.484375 8.171875 -6.984375 C 8.503906 -7.492188 8.671875 -8.09375 8.671875 -8.78125 C 8.671875 -9.851562 8.34375 -10.640625 7.6875 -11.140625 C 7.03125 -11.648438 6.117188 -11.90625 4.953125 -11.90625 C 4.546875 -11.90625 4.257812 -11.820312 4.09375 -11.65625 C 3.9375 -11.488281 3.84375 -11.285156 3.8125 -11.046875 C 3.789062 -10.816406 3.78125 -10.390625 3.78125 -9.765625 L 3.78125 -5.46875 C 4.082031 -5.4375 4.472656 -5.421875 4.953125 -5.421875 Z M 4.953125 -5.421875"></path></g></g></g><g fill-opacity="1" fill="#000000"><g transform="translate(398.311925, 98.995677)"><g><path d="M 0.984375 -0.59375 C 1.398438 -0.601562 1.695312 -0.695312 1.875 -0.875 C 2.0625 -1.0625 2.164062 -1.273438 2.1875 -1.515625 C 2.207031 -1.765625 2.21875 -2.191406 2.21875 -2.796875 L 2.21875 -10.5625 C 2.21875 -11.0625 2.238281 -11.488281 2.28125 -11.84375 L 0.984375 -11.78125 L 0.984375 -12.5625 C 2.234375 -12.59375 3.175781 -12.609375 3.8125 -12.609375 C 4.382812 -12.609375 4.8125 -12.597656 5.09375 -12.578125 C 6.78125 -12.554688 8.015625 -12.273438 8.796875 -11.734375 C 9.585938 -11.191406 9.984375 -10.40625 9.984375 -9.375 C 9.992188 -8.539062 9.742188 -7.796875 9.234375 -7.140625 C 8.734375 -6.484375 7.863281 -6.03125 6.625 -5.78125 C 6.832031 -5.625 7.019531 -5.4375 7.1875 -5.21875 C 7.351562 -5.007812 7.578125 -4.675781 7.859375 -4.21875 L 9.078125 -2.296875 C 9.347656 -1.878906 9.566406 -1.554688 9.734375 -1.328125 C 9.910156 -1.109375 10.117188 -0.929688 10.359375 -0.796875 C 10.609375 -0.660156 10.914062 -0.59375 11.28125 -0.59375 L 11.28125 0 L 9.015625 0 C 8.691406 -0.269531 8.414062 -0.550781 8.1875 -0.84375 C 7.96875 -1.144531 7.710938 -1.53125 7.421875 -2 L 6.21875 -3.90625 L 5.984375 -4.296875 C 5.785156 -4.617188 5.613281 -4.878906 5.46875 -5.078125 C 5.332031 -5.285156 5.179688 -5.46875 5.015625 -5.625 C 4.898438 -5.601562 4.726562 -5.59375 4.5 -5.59375 C 4.175781 -5.59375 3.9375 -5.601562 3.78125 -5.625 L 3.78125 -2.140625 C 3.78125 -1.503906 3.765625 -1.03125 3.734375 -0.71875 L 5.03125 -0.796875 L 5.03125 0 L 0.984375 0 Z M 4.578125 -6.28125 C 7.015625 -6.28125 8.234375 -7.242188 8.234375 -9.171875 C 8.234375 -10.078125 7.96875 -10.757812 7.4375 -11.21875 C 6.914062 -11.675781 6.113281 -11.90625 5.03125 -11.90625 C 4.613281 -11.90625 4.3125 -11.820312 4.125 -11.65625 C 3.945312 -11.488281 3.84375 -11.285156 3.8125 -11.046875 C 3.789062 -10.804688 3.78125 -10.378906 3.78125 -9.765625 L 3.78125 -6.3125 C 4.144531 -6.289062 4.410156 -6.28125 4.578125 -6.28125 Z M 4.578125 -6.28125"></path></g></g></g><g fill-opacity="1" fill="#000000"><g transform="translate(409.579921, 98.995677)"><g><path d="M 7.21875 0.28125 C 5.78125 0.28125 4.582031 -0.03125 3.625 -0.65625 C 2.664062 -1.289062 1.957031 -2.109375 1.5 -3.109375 C 1.050781 -4.109375 0.828125 -5.164062 0.828125 -6.28125 C 0.828125 -7.34375 1.0625 -8.375 1.53125 -9.375 C 2.007812 -10.382812 2.71875 -11.21875 3.65625 -11.875 C 4.59375 -12.53125 5.734375 -12.859375 7.078125 -12.859375 C 8.453125 -12.859375 9.617188 -12.53125 10.578125 -11.875 C 11.546875 -11.21875 12.269531 -10.382812 12.75 -9.375 C 13.226562 -8.375 13.46875 -7.34375 13.46875 -6.28125 C 13.46875 -5.226562 13.226562 -4.195312 12.75 -3.1875 C 12.28125 -2.175781 11.578125 -1.34375 10.640625 -0.6875 C 9.703125 -0.0390625 8.5625 0.28125 7.21875 0.28125 Z M 7.25 -0.453125 C 8.1875 -0.453125 8.984375 -0.71875 9.640625 -1.25 C 10.304688 -1.78125 10.8125 -2.460938 11.15625 -3.296875 C 11.5 -4.140625 11.671875 -5.019531 11.671875 -5.9375 C 11.671875 -6.957031 11.484375 -7.941406 11.109375 -8.890625 C 10.742188 -9.847656 10.207031 -10.628906 9.5 -11.234375 C 8.789062 -11.835938 7.960938 -12.140625 7.015625 -12.140625 C 6.085938 -12.140625 5.285156 -11.867188 4.609375 -11.328125 C 3.941406 -10.796875 3.4375 -10.101562 3.09375 -9.25 C 2.75 -8.40625 2.578125 -7.523438 2.578125 -6.609375 C 2.578125 -5.660156 2.75 -4.707031 3.09375 -3.75 C 3.445312 -2.800781 3.976562 -2.015625 4.6875 -1.390625 C 5.394531 -0.765625 6.25 -0.453125 7.25 -0.453125 Z M 7.25 -0.453125"></path></g></g></g><g fill-opacity="1" fill="#000000"><g transform="translate(423.736666, 98.995677)"><g><path d="M 6.75 -2.0625 C 5.84375 -4.082031 5.132812 -5.675781 4.625 -6.84375 C 4.125 -8.007812 3.632812 -9.238281 3.15625 -10.53125 L 3.140625 -9.75 C 3.035156 -6.238281 2.96875 -3.738281 2.9375 -2.25 C 2.9375 -2.0625 2.929688 -1.925781 2.921875 -1.84375 C 2.921875 -1.4375 2.90625 -1.0625 2.875 -0.71875 L 4.21875 -0.796875 L 4.21875 0 L 0.796875 0 L 0.796875 -0.59375 C 1.296875 -0.601562 1.617188 -0.742188 1.765625 -1.015625 C 1.921875 -1.285156 2.007812 -1.695312 2.03125 -2.25 L 2.421875 -11.84375 L 1.125 -11.796875 L 1.125 -12.5625 L 3.875 -12.5625 L 6.3125 -6.9375 C 7.195312 -4.851562 7.878906 -3.269531 8.359375 -2.1875 L 8.40625 -2.1875 C 8.550781 -2.550781 8.851562 -3.320312 9.3125 -4.5 C 9.769531 -5.65625 10.289062 -6.921875 10.875 -8.296875 C 11.5625 -9.898438 12.148438 -11.320312 12.640625 -12.5625 L 15.296875 -12.5625 L 15.296875 -11.96875 C 14.867188 -11.988281 14.550781 -11.875 14.34375 -11.625 C 14.144531 -11.375 14.046875 -10.957031 14.046875 -10.375 L 14.0625 -10.015625 L 14.53125 -1.84375 C 14.550781 -1.570312 14.5625 -1.203125 14.5625 -0.734375 L 15.875 -0.796875 L 15.875 0 L 11.84375 0 L 11.84375 -0.59375 C 12.3125 -0.601562 12.628906 -0.734375 12.796875 -0.984375 C 12.960938 -1.242188 13.046875 -1.648438 13.046875 -2.203125 C 13.046875 -2.429688 13.039062 -2.609375 13.03125 -2.734375 L 12.5625 -10.375 C 12.539062 -10.3125 12.507812 -10.234375 12.46875 -10.140625 C 12.425781 -10.046875 12.378906 -9.929688 12.328125 -9.796875 L 8.296875 0.171875 L 7.75 0.171875 Z M 6.75 -2.0625"></path></g></g></g><g fill-opacity="1" fill="#000000"><g transform="translate(440.208039, 98.995677)"><g><path d="M 0.984375 -0.59375 C 1.398438 -0.601562 1.695312 -0.695312 1.875 -0.875 C 2.0625 -1.0625 2.164062 -1.273438 2.1875 -1.515625 C 2.207031 -1.765625 2.21875 -2.191406 2.21875 -2.796875 L 2.21875 -10.5625 C 2.21875 -11.0625 2.238281 -11.488281 2.28125 -11.84375 L 0.984375 -11.78125 L 0.984375 -12.5625 L 5.03125 -12.5625 L 5.03125 -11.96875 C 4.613281 -11.957031 4.3125 -11.863281 4.125 -11.6875 C 3.945312 -11.507812 3.84375 -11.296875 3.8125 -11.046875 C 3.789062 -10.804688 3.78125 -10.378906 3.78125 -9.765625 L 3.78125 -2.140625 C 3.78125 -1.503906 3.765625 -1.03125 3.734375 -0.71875 L 5.03125 -0.796875 L 5.03125 0 L 0.984375 0 Z M 0.984375 -0.59375"></path></g></g></g><g fill-opacity="1" fill="#000000"><g transform="translate(446.218837, 98.995677)"><g><path d="M 5.1875 0.28125 C 4.625 0.28125 4.054688 0.203125 3.484375 0.046875 C 2.921875 -0.0976562 2.425781 -0.320312 2 -0.625 L 2.078125 0.140625 L 1.15625 0.140625 L 1.046875 -3.6875 L 1.734375 -3.6875 C 1.796875 -2.65625 2.148438 -1.859375 2.796875 -1.296875 C 3.441406 -0.742188 4.265625 -0.46875 5.265625 -0.46875 C 5.992188 -0.46875 6.601562 -0.664062 7.09375 -1.0625 C 7.59375 -1.46875 7.84375 -2.015625 7.84375 -2.703125 C 7.84375 -3.222656 7.703125 -3.664062 7.421875 -4.03125 C 7.140625 -4.394531 6.789062 -4.695312 6.375 -4.9375 C 5.96875 -5.1875 5.410156 -5.472656 4.703125 -5.796875 C 3.898438 -6.179688 3.257812 -6.515625 2.78125 -6.796875 C 2.3125 -7.085938 1.910156 -7.46875 1.578125 -7.9375 C 1.242188 -8.414062 1.078125 -9 1.078125 -9.6875 C 1.078125 -10.164062 1.1875 -10.644531 1.40625 -11.125 C 1.625 -11.601562 2.003906 -12.007812 2.546875 -12.34375 C 3.097656 -12.6875 3.820312 -12.859375 4.71875 -12.859375 C 5.257812 -12.859375 5.800781 -12.785156 6.34375 -12.640625 C 6.882812 -12.503906 7.382812 -12.269531 7.84375 -11.9375 L 7.78125 -12.703125 L 8.6875 -12.703125 L 8.6875 -8.765625 L 8.046875 -8.765625 C 7.984375 -9.703125 7.675781 -10.5 7.125 -11.15625 C 6.582031 -11.8125 5.820312 -12.140625 4.84375 -12.140625 C 4.125 -12.140625 3.5625 -11.9375 3.15625 -11.53125 C 2.75 -11.132812 2.546875 -10.632812 2.546875 -10.03125 C 2.546875 -9.550781 2.679688 -9.140625 2.953125 -8.796875 C 3.234375 -8.453125 3.570312 -8.164062 3.96875 -7.9375 C 4.363281 -7.707031 4.921875 -7.425781 5.640625 -7.09375 C 6.453125 -6.71875 7.101562 -6.378906 7.59375 -6.078125 C 8.09375 -5.785156 8.515625 -5.394531 8.859375 -4.90625 C 9.210938 -4.425781 9.390625 -3.832031 9.390625 -3.125 C 9.390625 -2.457031 9.222656 -1.863281 8.890625 -1.34375 C 8.566406 -0.832031 8.085938 -0.429688 7.453125 -0.140625 C 6.816406 0.140625 6.0625 0.28125 5.1875 0.28125 Z M 5.1875 0.28125"></path></g></g></g><g fill-opacity="1" fill="#000000"><g transform="translate(456.392325, 98.995677)"><g><path d="M 7.21875 0.28125 C 5.78125 0.28125 4.582031 -0.03125 3.625 -0.65625 C 2.664062 -1.289062 1.957031 -2.109375 1.5 -3.109375 C 1.050781 -4.109375 0.828125 -5.164062 0.828125 -6.28125 C 0.828125 -7.34375 1.0625 -8.375 1.53125 -9.375 C 2.007812 -10.382812 2.71875 -11.21875 3.65625 -11.875 C 4.59375 -12.53125 5.734375 -12.859375 7.078125 -12.859375 C 8.453125 -12.859375 9.617188 -12.53125 10.578125 -11.875 C 11.546875 -11.21875 12.269531 -10.382812 12.75 -9.375 C 13.226562 -8.375 13.46875 -7.34375 13.46875 -6.28125 C 13.46875 -5.226562 13.226562 -4.195312 12.75 -3.1875 C 12.28125 -2.175781 11.578125 -1.34375 10.640625 -0.6875 C 9.703125 -0.0390625 8.5625 0.28125 7.21875 0.28125 Z M 7.25 -0.453125 C 8.1875 -0.453125 8.984375 -0.71875 9.640625 -1.25 C 10.304688 -1.78125 10.8125 -2.460938 11.15625 -3.296875 C 11.5 -4.140625 11.671875 -5.019531 11.671875 -5.9375 C 11.671875 -6.957031 11.484375 -7.941406 11.109375 -8.890625 C 10.742188 -9.847656 10.207031 -10.628906 9.5 -11.234375 C 8.789062 -11.835938 7.960938 -12.140625 7.015625 -12.140625 C 6.085938 -12.140625 5.285156 -11.867188 4.609375 -11.328125 C 3.941406 -10.796875 3.4375 -10.101562 3.09375 -9.25 C 2.75 -8.40625 2.578125 -7.523438 2.578125 -6.609375 C 2.578125 -5.660156 2.75 -4.707031 3.09375 -3.75 C 3.445312 -2.800781 3.976562 -2.015625 4.6875 -1.390625 C 5.394531 -0.765625 6.25 -0.453125 7.25 -0.453125 Z M 7.25 -0.453125"></path></g></g></g><g fill-opacity="1" fill="#000000"><g transform="translate(599.330619, 98.995677)"><g><path d="M 6.9375 0.28125 C 5.757812 0.28125 4.707031 0 3.78125 -0.5625 C 2.851562 -1.125 2.128906 -1.890625 1.609375 -2.859375 C 1.085938 -3.828125 0.828125 -4.90625 0.828125 -6.09375 C 0.828125 -7.257812 1.0625 -8.359375 1.53125 -9.390625 C 2.007812 -10.421875 2.71875 -11.253906 3.65625 -11.890625 C 4.59375 -12.535156 5.726562 -12.859375 7.0625 -12.859375 C 8.375 -12.859375 9.582031 -12.492188 10.6875 -11.765625 L 10.59375 -12.734375 L 11.5625 -12.734375 L 11.5625 -8.5625 L 10.921875 -8.5625 C 10.796875 -9.675781 10.398438 -10.546875 9.734375 -11.171875 C 9.078125 -11.804688 8.226562 -12.125 7.1875 -12.125 C 6.332031 -12.125 5.554688 -11.882812 4.859375 -11.40625 C 4.160156 -10.9375 3.601562 -10.265625 3.1875 -9.390625 C 2.78125 -8.515625 2.578125 -7.503906 2.578125 -6.359375 C 2.578125 -5.253906 2.789062 -4.265625 3.21875 -3.390625 C 3.65625 -2.523438 4.238281 -1.847656 4.96875 -1.359375 C 5.695312 -0.878906 6.503906 -0.640625 7.390625 -0.640625 C 8.191406 -0.640625 8.960938 -0.816406 9.703125 -1.171875 C 10.453125 -1.535156 11.066406 -2.046875 11.546875 -2.703125 L 12.015625 -2.328125 C 11.316406 -1.359375 10.519531 -0.679688 9.625 -0.296875 C 8.726562 0.0859375 7.832031 0.28125 6.9375 0.28125 Z M 6.9375 0.28125"></path></g></g></g><g fill-opacity="1" fill="#000000"><g transform="translate(611.872546, 98.995677)"><g><path d="M 0.984375 -0.59375 C 1.398438 -0.601562 1.695312 -0.695312 1.875 -0.875 C 2.0625 -1.0625 2.164062 -1.273438 2.1875 -1.515625 C 2.207031 -1.765625 2.21875 -2.191406 2.21875 -2.796875 L 2.21875 -10.5625 C 2.21875 -11.0625 2.238281 -11.488281 2.28125 -11.84375 L 0.984375 -11.78125 L 0.984375 -12.5625 L 9.625 -12.5625 L 9.71875 -9.421875 L 9.125 -9.421875 C 9.125 -10.398438 8.910156 -11.066406 8.484375 -11.421875 C 8.054688 -11.785156 7.460938 -11.957031 6.703125 -11.9375 L 5.15625 -11.90625 C 4.71875 -11.894531 4.40625 -11.8125 4.21875 -11.65625 C 4.03125 -11.507812 3.910156 -11.300781 3.859375 -11.03125 C 3.804688 -10.757812 3.78125 -10.335938 3.78125 -9.765625 L 3.78125 -6.890625 L 7.15625 -6.875 L 7.03125 -8.421875 L 7.828125 -8.421875 L 7.828125 -4.65625 L 7.234375 -4.65625 C 7.234375 -5.09375 7.175781 -5.425781 7.0625 -5.65625 C 6.957031 -5.894531 6.796875 -6.050781 6.578125 -6.125 C 6.359375 -6.207031 6.050781 -6.25 5.65625 -6.25 L 5.09375 -6.234375 L 3.78125 -6.171875 L 3.78125 -2.0625 C 3.78125 -1.4375 3.765625 -0.972656 3.734375 -0.671875 L 7.15625 -0.71875 C 8 -0.726562 8.640625 -0.9375 9.078125 -1.34375 C 9.523438 -1.757812 9.75 -2.476562 9.75 -3.5 L 10.359375 -3.5 L 10.25 0 L 0.984375 0 Z M 0.984375 -0.59375"></path></g></g></g><g fill-opacity="1" fill="#000000"><g transform="translate(623.032887, 98.995677)"><g><path d="M 0.984375 -0.59375 C 1.398438 -0.601562 1.695312 -0.695312 1.875 -0.875 C 2.0625 -1.0625 2.164062 -1.273438 2.1875 -1.515625 C 2.207031 -1.765625 2.21875 -2.191406 2.21875 -2.796875 L 2.21875 -10.5625 C 2.21875 -11.0625 2.238281 -11.488281 2.28125 -11.84375 L 0.984375 -11.78125 L 0.984375 -12.5625 C 2.234375 -12.59375 3.175781 -12.609375 3.8125 -12.609375 C 4.382812 -12.609375 4.8125 -12.597656 5.09375 -12.578125 C 6.78125 -12.554688 8.015625 -12.273438 8.796875 -11.734375 C 9.585938 -11.191406 9.984375 -10.40625 9.984375 -9.375 C 9.992188 -8.539062 9.742188 -7.796875 9.234375 -7.140625 C 8.734375 -6.484375 7.863281 -6.03125 6.625 -5.78125 C 6.832031 -5.625 7.019531 -5.4375 7.1875 -5.21875 C 7.351562 -5.007812 7.578125 -4.675781 7.859375 -4.21875 L 9.078125 -2.296875 C 9.347656 -1.878906 9.566406 -1.554688 9.734375 -1.328125 C 9.910156 -1.109375 10.117188 -0.929688 10.359375 -0.796875 C 10.609375 -0.660156 10.914062 -0.59375 11.28125 -0.59375 L 11.28125 0 L 9.015625 0 C 8.691406 -0.269531 8.414062 -0.550781 8.1875 -0.84375 C 7.96875 -1.144531 7.710938 -1.53125 7.421875 -2 L 6.21875 -3.90625 L 5.984375 -4.296875 C 5.785156 -4.617188 5.613281 -4.878906 5.46875 -5.078125 C 5.332031 -5.285156 5.179688 -5.46875 5.015625 -5.625 C 4.898438 -5.601562 4.726562 -5.59375 4.5 -5.59375 C 4.175781 -5.59375 3.9375 -5.601562 3.78125 -5.625 L 3.78125 -2.140625 C 3.78125 -1.503906 3.765625 -1.03125 3.734375 -0.71875 L 5.03125 -0.796875 L 5.03125 0 L 0.984375 0 Z M 4.578125 -6.28125 C 7.015625 -6.28125 8.234375 -7.242188 8.234375 -9.171875 C 8.234375 -10.078125 7.96875 -10.757812 7.4375 -11.21875 C 6.914062 -11.675781 6.113281 -11.90625 5.03125 -11.90625 C 4.613281 -11.90625 4.3125 -11.820312 4.125 -11.65625 C 3.945312 -11.488281 3.84375 -11.285156 3.8125 -11.046875 C 3.789062 -10.804688 3.78125 -10.378906 3.78125 -9.765625 L 3.78125 -6.3125 C 4.144531 -6.289062 4.410156 -6.28125 4.578125 -6.28125 Z M 4.578125 -6.28125"></path></g></g></g><g fill-opacity="1" fill="#000000"><g transform="translate(634.300883, 98.995677)"><g><path d="M 6.9375 0.28125 C 5.757812 0.28125 4.707031 0 3.78125 -0.5625 C 2.851562 -1.125 2.128906 -1.890625 1.609375 -2.859375 C 1.085938 -3.828125 0.828125 -4.90625 0.828125 -6.09375 C 0.828125 -7.257812 1.0625 -8.359375 1.53125 -9.390625 C 2.007812 -10.421875 2.71875 -11.253906 3.65625 -11.890625 C 4.59375 -12.535156 5.726562 -12.859375 7.0625 -12.859375 C 8.375 -12.859375 9.582031 -12.492188 10.6875 -11.765625 L 10.59375 -12.734375 L 11.5625 -12.734375 L 11.5625 -8.5625 L 10.921875 -8.5625 C 10.796875 -9.675781 10.398438 -10.546875 9.734375 -11.171875 C 9.078125 -11.804688 8.226562 -12.125 7.1875 -12.125 C 6.332031 -12.125 5.554688 -11.882812 4.859375 -11.40625 C 4.160156 -10.9375 3.601562 -10.265625 3.1875 -9.390625 C 2.78125 -8.515625 2.578125 -7.503906 2.578125 -6.359375 C 2.578125 -5.253906 2.789062 -4.265625 3.21875 -3.390625 C 3.65625 -2.523438 4.238281 -1.847656 4.96875 -1.359375 C 5.695312 -0.878906 6.503906 -0.640625 7.390625 -0.640625 C 8.191406 -0.640625 8.960938 -0.816406 9.703125 -1.171875 C 10.453125 -1.535156 11.066406 -2.046875 11.546875 -2.703125 L 12.015625 -2.328125 C 11.316406 -1.359375 10.519531 -0.679688 9.625 -0.296875 C 8.726562 0.0859375 7.832031 0.28125 6.9375 0.28125 Z M 6.9375 0.28125"></path></g></g></g><g fill-opacity="1" fill="#000000"><g transform="translate(646.663343, 98.995677)"><g><path d="M -0.109375 -0.59375 C 0.191406 -0.59375 0.429688 -0.660156 0.609375 -0.796875 C 0.785156 -0.929688 0.929688 -1.109375 1.046875 -1.328125 C 1.160156 -1.554688 1.296875 -1.890625 1.453125 -2.328125 L 1.640625 -2.84375 L 5.328125 -12.90625 L 5.765625 -12.90625 L 9.765625 -2.6875 C 9.898438 -2.363281 10.015625 -2.015625 10.109375 -1.640625 C 10.203125 -1.265625 10.242188 -0.957031 10.234375 -0.71875 L 11.453125 -0.796875 L 11.453125 0 L 7.34375 0 L 7.34375 -0.59375 C 8.050781 -0.601562 8.40625 -0.890625 8.40625 -1.453125 C 8.40625 -1.679688 8.34375 -1.960938 8.21875 -2.296875 L 7.59375 -3.984375 L 2.921875 -3.875 C 2.742188 -3.382812 2.535156 -2.742188 2.296875 -1.953125 C 2.179688 -1.554688 2.03125 -1.144531 1.84375 -0.71875 L 3.25 -0.796875 L 3.25 0 L -0.109375 0 Z M 7.34375 -4.65625 L 6.0625 -8.078125 L 5.265625 -10.28125 L 5.21875 -10.28125 L 4.46875 -8.265625 L 3.5 -5.53125 L 3.203125 -4.65625 Z M 7.34375 -4.65625"></path></g></g></g><g fill-opacity="1" fill="#000000"><g transform="translate(657.89545, 98.995677)"><g><path d="M 3.015625 -10.171875 L 3 -10.171875 L 3.046875 -2.5 C 3.046875 -1.695312 3.035156 -1.101562 3.015625 -0.71875 L 4.3125 -0.796875 L 4.3125 0 L 1.015625 0 L 1.015625 -0.59375 C 1.492188 -0.59375 1.8125 -0.726562 1.96875 -1 C 2.125 -1.28125 2.203125 -1.617188 2.203125 -2.015625 L 2.21875 -11.84375 L 1.015625 -11.78125 L 1.015625 -12.5625 L 3.15625 -12.5625 L 10.8125 -2.328125 L 10.828125 -2.328125 L 10.84375 -10.5625 C 10.84375 -11.0625 10.859375 -11.488281 10.890625 -11.84375 L 9.609375 -11.78125 L 9.609375 -12.5625 L 12.90625 -12.5625 L 12.90625 -11.96875 C 12.550781 -11.957031 12.285156 -11.890625 12.109375 -11.765625 C 11.929688 -11.640625 11.816406 -11.46875 11.765625 -11.25 C 11.722656 -11.039062 11.703125 -10.753906 11.703125 -10.390625 L 11.703125 -9.765625 L 11.671875 0.28125 L 10.8125 0.28125 Z M 3.015625 -10.171875"></path></g></g></g><g fill-opacity="1" fill="#000000"><g transform="translate(671.567763, 98.995677)"><g><path d="M 0.984375 -0.59375 C 1.398438 -0.601562 1.695312 -0.695312 1.875 -0.875 C 2.0625 -1.0625 2.164062 -1.273438 2.1875 -1.515625 C 2.207031 -1.765625 2.21875 -2.191406 2.21875 -2.796875 L 2.21875 -10.5625 C 2.21875 -11.0625 2.238281 -11.488281 2.28125 -11.84375 L 0.984375 -11.78125 L 0.984375 -12.5625 L 5.03125 -12.5625 L 5.03125 -11.96875 C 4.613281 -11.957031 4.3125 -11.863281 4.125 -11.6875 C 3.945312 -11.507812 3.84375 -11.296875 3.8125 -11.046875 C 3.789062 -10.804688 3.78125 -10.378906 3.78125 -9.765625 L 3.78125 -2.140625 C 3.78125 -1.503906 3.765625 -1.03125 3.734375 -0.71875 L 5.03125 -0.796875 L 5.03125 0 L 0.984375 0 Z M 5.03125 -15.25 C 5.40625 -15.476562 5.59375 -15.738281 5.59375 -16.03125 C 5.59375 -16.1875 5.554688 -16.3125 5.484375 -16.40625 C 5.453125 -16.457031 5.390625 -16.507812 5.296875 -16.5625 C 5.210938 -16.613281 5.109375 -16.640625 4.984375 -16.640625 C 4.773438 -16.640625 4.539062 -16.53125 4.28125 -16.3125 L 2.03125 -14.171875 L 2.421875 -13.640625 Z M 5.03125 -15.25"></path></g></g></g><g fill-opacity="1" fill="#000000"><g transform="translate(677.578561, 98.995677)"><g><path d="M -0.109375 -0.59375 C 0.191406 -0.59375 0.429688 -0.660156 0.609375 -0.796875 C 0.785156 -0.929688 0.929688 -1.109375 1.046875 -1.328125 C 1.160156 -1.554688 1.296875 -1.890625 1.453125 -2.328125 L 1.640625 -2.84375 L 5.328125 -12.90625 L 5.765625 -12.90625 L 9.765625 -2.6875 C 9.898438 -2.363281 10.015625 -2.015625 10.109375 -1.640625 C 10.203125 -1.265625 10.242188 -0.957031 10.234375 -0.71875 L 11.453125 -0.796875 L 11.453125 0 L 7.34375 0 L 7.34375 -0.59375 C 8.050781 -0.601562 8.40625 -0.890625 8.40625 -1.453125 C 8.40625 -1.679688 8.34375 -1.960938 8.21875 -2.296875 L 7.59375 -3.984375 L 2.921875 -3.875 C 2.742188 -3.382812 2.535156 -2.742188 2.296875 -1.953125 C 2.179688 -1.554688 2.03125 -1.144531 1.84375 -0.71875 L 3.25 -0.796875 L 3.25 0 L -0.109375 0 Z M 7.34375 -4.65625 L 6.0625 -8.078125 L 5.265625 -10.28125 L 5.21875 -10.28125 L 4.46875 -8.265625 L 3.5 -5.53125 L 3.203125 -4.65625 Z M 7.34375 -4.65625"></path></g></g></g></svg>